<svg xmlns="http://www.w3.org/2000/svg" viewBox="0 0 24 24" width="24" height="24" fill="none">

    <!-- Heart Outline -->
    <path d="M12 20.5
           L10.6 19.2
           C5.2 14.3
           2 11.4
           2 7.8
           C2 5 4.2 3
           7 3
           C8.8 3
           10.5 3.9
           12 5.3
           C13.5 3.9
           15.2 3
           17 3
           C19.8 3
           22 5
           22 7.8
           C22 11.4
           18.8 14.3
           13.4 19.2
           L12 20.5Z" stroke="#00D4FF" stroke-width="2" stroke-linecap="round" stroke-linejoin="round" fill="none"></path>

    <!-- Heart Fill Accent -->
    <path d="M12 17.8
           L11.2 17.1
           C6.8 13.2
           4.2 10.8
           4.2 8
           C4.2 6.2
           5.6 4.8
           7.4 4.8
           C8.8 4.8
           10.1 5.6
           12 7.4
           C13.9 5.6
           15.2 4.8
           16.6 4.8
           C18.4 4.8
           19.8 6.2
           19.8 8
           C19.8 10.8
           17.2 13.2
           12.8 17.1
           Z" fill="#00D4FF" fill-opacity="0.18"></path>

</svg>